<?xml version="1.0" standalone="no"?>
<!DOCTYPE svg PUBLIC "-//W3C//DTD SVG 20010904//EN"
 "http://www.w3.org/TR/2001/REC-SVG-20010904/DTD/svg10.dtd">
<svg version="1.0" xmlns="http://www.w3.org/2000/svg"
 width="1101.000000pt" height="177.000000pt" viewBox="0 0 1101.000000 177.000000"
 preserveAspectRatio="xMidYMid meet">
<metadata>
Created by potrace 1.16, written by Peter Selinger 2001-2019
</metadata>
<g transform="translate(0.000000,177.000000) scale(0.100000,-0.100000)"
fill="#000000" stroke="none">
<path d="M610 950 l0 -220 65 0 65 0 0 85 0 85 155 0 c152 0 156 1 180 25 23
22 25 32 25 110 0 78 -2 88 -25 110 l-24 25 -221 0 -220 0 0 -220z m355 85 l0
-40 -112 -3 -113 -3 0 46 0 46 113 -3 112 -3 0 -40z"/>
<path d="M1230 950 l0 -220 235 0 235 0 0 45 0 45 -170 0 -170 0 0 50 0 50
100 0 100 0 0 45 0 45 -100 0 -100 0 0 35 0 35 170 0 170 0 0 45 0 45 -235 0
-235 0 0 -220z"/>
<path d="M1860 950 l0 -220 210 0 c240 0 260 5 280 66 16 49 7 120 -19 148
-21 22 -21 22 -1 39 16 13 20 29 20 80 0 53 -4 67 -23 85 -22 21 -31 22 -245
22 l-222 0 0 -220z m364 124 c9 -3 16 -14 16 -23 0 -35 -21 -41 -137 -41
l-113 0 0 35 0 35 109 0 c60 0 116 -3 125 -6z m0 -160 c19 -7 22 -64 4 -82 -8
-8 -50 -12 -125 -12 l-113 0 0 50 0 50 109 0 c60 0 116 -3 125 -6z"/>
<path d="M2520 950 l0 -220 65 0 65 0 0 80 0 80 36 0 c31 0 46 -11 119 -80
l84 -80 87 0 87 0 -98 78 -97 77 52 5 c78 8 90 28 90 145 0 89 -1 95 -26 114
-25 20 -39 21 -245 21 l-219 0 0 -220z m358 118 c7 -7 12 -24 12 -38 0 -44
-16 -50 -132 -50 l-108 0 0 50 0 50 108 0 c71 0 112 -4 120 -12z"/>
<path d="M3225 993 c-54 -98 -109 -197 -122 -220 l-25 -43 65 0 64 0 24 45 24
45 125 0 125 0 25 -45 25 -45 67 0 c38 0 68 2 68 5 0 3 -54 102 -121 220
l-121 215 -63 0 -63 0 -97 -177z"/>
<path d="M5159 1151 c-23 -18 -24 -26 -27 -167 -4 -167 1 -207 29 -235 18 -18
34 -19 245 -19 128 0 233 4 244 10 30 16 40 67 40 210 0 143 -10 194 -40 210
-11 6 -116 10 -243 10 -206 0 -227 -2 -248 -19z m401 -201 l0 -130 -150 0
-150 0 0 130 0 130 150 0 150 0 0 -130z"/>
<path d="M5905 1145 c-22 -22 -25 -32 -25 -105 0 -73 3 -83 25 -105 24 -24 28
-25 185 -25 l160 0 0 -45 0 -45 -135 0 -135 0 0 30 c0 34 0 34 -69 18 -42 -9
-51 -15 -51 -33 0 -36 21 -85 40 -95 11 -6 107 -10 218 -10 252 0 245 -3 250
129 4 85 3 91 -22 115 -25 26 -26 26 -191 26 l-165 0 0 40 0 40 130 0 130 0 0
-25 c0 -29 10 -30 76 -14 31 8 44 17 44 29 0 31 -22 80 -40 90 -10 6 -104 10
-210 10 -189 0 -191 0 -215 -25z"/>
</g>
</svg>
